HIERARCHY
ROOT Hips
{
	OFFSET -3.958830 18.904000 13.208200
	CHANNELS 6 Xposition Yposition Zposition Zrotation Yrotation Xrotation 
	JOINT LHipJoint
	{
		OFFSET 0.000000 0.000000 0.000000
		CHANNELS 3 Zrotation Yrotation Xrotation
		JOINT LeftUpLeg
		{
			OFFSET 1.800000 -1.400000 0.085000
			CHANNELS 3 Zrotation Yrotation Xrotation
			JOINT LeftLeg
			{
				OFFSET 2.215000 -6.000000 0.000000
				CHANNELS 3 Zrotation Yrotation Xrotation
				JOINT LeftFoot
				{
					OFFSET 2.500000 -6.900000 0.000000
					CHANNELS 3 Zrotation Yrotation Xrotation
					JOINT LeftToeBase
					{
						OFFSET 0.200000 -0.500000 1.950000
						CHANNELS 3 Zrotation Yrotation Xrotation
						End Site
						{
							OFFSET 0.000000 0.000000 0.000000
						}
					}
				}
			}
		}
	}
	JOINT RHipJoint
	{
		OFFSET 0.000000 0.000000 0.000000
		CHANNELS 3 Zrotation Yrotation Xrotation
		JOINT RightUpLeg
		{
			OFFSET -1.800000 -1.400000 0.085000
			CHANNELS 3 Zrotation Yrotation Xrotation
			JOINT RightLeg
			{
				OFFSET -2.215000 -6.000000 0.000000
				CHANNELS 3 Zrotation Yrotation Xrotation
				JOINT RightFoot
				{
					OFFSET -2.500000 -6.900000 0.000000
					CHANNELS 3 Zrotation Yrotation Xrotation
					JOINT RightToeBase
					{
						OFFSET -0.200000 -0.500000 1.950000
						CHANNELS 3 Zrotation Yrotation Xrotation
						End Site
						{
							OFFSET 0.000000 0.000000 0.000000
						}
					}
				}
			}
		}
	}
	JOINT LowerBack
	{
		OFFSET 0.000000 0.000000 0.000000
		CHANNELS 3 Zrotation Yrotation Xrotation
		JOINT Spine
		{
			OFFSET -0.087000 1.940000 -0.288900
			CHANNELS 3 Zrotation Yrotation Xrotation
			JOINT Spine1
			{
				OFFSET 0.000000 1.950000 0.060000
				CHANNELS 3 Zrotation Yrotation Xrotation
				JOINT Neck
				{
					OFFSET 0.000000 0.000000 0.000000
					CHANNELS 3 Zrotation Yrotation Xrotation
					JOINT Neck1
					{
						OFFSET 0.000000 1.600000 0.340000
						CHANNELS 3 Zrotation Yrotation Xrotation
						JOINT Head
						{
							OFFSET 0.000000 1.667000 -0.240000
							CHANNELS 3 Zrotation Yrotation Xrotation
							End Site
							{
								OFFSET 0.000000 0.000000 0.000000
							}
						}
					}
				}
				JOINT LeftShoulder
				{
					OFFSET 0.000000 0.000000 0.000000
					CHANNELS 3 Zrotation Yrotation Xrotation
					JOINT LeftArm
					{
						OFFSET 2.700000 1.550000 -0.730000
						CHANNELS 3 Zrotation Yrotation Xrotation
						JOINT LeftForeArm
						{
							OFFSET 5.450000 0.000000 0.000000
							CHANNELS 3 Zrotation Yrotation Xrotation
							JOINT LeftHand
							{
								OFFSET 3.450000 0.000000 0.000000
								CHANNELS 3 Zrotation Yrotation Xrotation
								JOINT LeftHandIndex1
								{
									OFFSET 0.750000 0.000000 0.000000
									CHANNELS 3 Zrotation Yrotation Xrotation
									End Site
									{
										OFFSET 0.000000 0.000000 0.000000
									}
								}
							}
						}
					}
				}
				JOINT RightShoulder
				{
					OFFSET 0.000000 0.000000 0.000000
					CHANNELS 3 Zrotation Yrotation Xrotation
					JOINT RightArm
					{
						OFFSET -2.700000 1.550000 -0.730000
						CHANNELS 3 Zrotation Yrotation Xrotation
						JOINT RightForeArm
						{
							OFFSET -5.450000 0.000000 0.000000
							CHANNELS 3 Zrotation Yrotation Xrotation
							JOINT RightHand
							{
								OFFSET -3.450000 0.000000 0.000000
								CHANNELS 3 Zrotation Yrotation Xrotation
								JOINT RightHandIndex1
								{
									OFFSET -0.750000 0.000000 0.000000
									CHANNELS 3 Zrotation Yrotation Xrotation
									End Site
									{
										OFFSET 0.000000 0.000000 0.000000
									}
								}
							}
						}
					}
				}
			}
		}
	}
}
MOTION
Frames: 4
Frame Time: 0.016667
-1.081550 16.335430 -2.657890 -2.741915 5.085809 -11.547397 -15.076000 10.067976 5.437079 39.497671 -1.979060 -22.864467 -28.236597 24.532584 39.780597 1.403074 11.329689 0.195972 0.587810 0.708790 0.783410 18.797318 -10.028816 2.659057 -29.066715 1.031705 -26.064396 11.939175 -21.109055 54.936422 -1.695862 -9.775431 0.562525 0.124990 -0.667360 0.065680 -4.537207 1.472204 -9.410100 30.140440 -8.169038 33.190119 -8.023885 -0.856087 2.792189 2.120790 8.968926 -15.905567 30.745659 -25.482145 46.179476 6.002610 -5.489730 -18.591360 -2.031418 -8.394280 4.995221 -33.836036 2.220485 -12.378448 50.112493 -43.316309 -17.689708 -2.915402 2.953050 0.570900 -0.531360 0.738560 -0.102320 -3.770995 7.052212 10.539630 75.255303 10.432049 -13.807481 13.173526 47.554091 -0.849719 2.605291 -1.475690 0.246590 -0.110020 -0.411230 -0.095970 
-1.093140 16.315940 -2.663990 -2.669404 5.225268 -11.974497 -15.060310 10.096825 5.408645 39.266268 -2.111071 -22.958167 -27.534693 24.619788 40.811113 1.417802 11.395775 0.177442 0.580810 0.695930 0.777890 18.805156 -10.077907 2.636526 -28.881818 1.037125 -25.991487 11.297181 -21.041907 55.741901 -1.709810 -9.835182 0.545280 0.117160 -0.665370 0.059030 -4.571377 1.494871 -9.397151 30.605578 -8.480188 33.483490 -8.364903 -0.946818 2.810649 1.937648 8.809126 -15.823392 29.965603 -25.053669 46.964913 6.582390 -5.586450 -18.503260 -1.382619 -8.220121 4.908497 -34.456566 1.544668 -12.294544 51.481995 -42.077541 -17.826353 -2.929453 2.963713 0.574390 -0.538760 0.732920 -0.106420 -4.077119 6.916819 10.617831 75.965735 10.352769 -14.147198 13.569549 48.210479 -0.751565 2.607832 -1.484503 0.243350 -0.109800 -0.406140 -0.095820 
-1.111940 16.292090 -2.670080 -2.404834 5.608499 -12.324286 -15.038572 10.142848 5.346871 38.544305 -2.452997 -23.458328 -26.277920 24.509384 42.303231 1.423636 11.438300 0.164689 0.592850 0.705460 0.775690 18.818517 -10.138149 2.611930 -28.802215 0.839723 -26.062125 10.431109 -20.919489 56.613902 -1.726767 -9.889274 0.524767 0.121700 -0.665710 0.054570 -4.620565 1.481987 -9.372234 30.754246 -8.725860 33.378381 -8.375512 -1.226570 3.247312 1.775018 8.660889 -15.599815 28.441178 -24.442855 48.235470 7.344010 -5.990800 -18.768800 -0.853692 -8.366741 4.930035 -34.809945 0.743043 -12.259858 52.580767 -40.569046 -17.872413 -2.927864 2.988410 0.574970 -0.553600 0.731810 -0.100060 -4.117768 6.769185 10.404141 76.003714 10.371064 -14.225646 14.248192 48.306081 -0.523920 2.620739 -1.497884 0.249070 -0.108760 -0.411280 -0.086980 
-1.137860 16.271650 -2.671130 -2.328964 5.694799 -12.770377 -15.013950 10.215423 5.260246 38.031505 -2.572509 -23.523065 -24.835422 24.253658 43.509680 1.412985 11.436696 0.159813 0.600880 0.716240 0.767870 18.829381 -10.215803 2.589270 -28.345728 0.887878 -26.129101 9.446187 -20.713393 57.746167 -1.747828 -9.969060 0.499563 0.128970 -0.664810 0.053020 -4.671820 1.498491 -9.330876 31.136839 -8.963519 33.303641 -8.594885 -1.437303 3.662915 1.771947 8.589464 -15.284119 27.223204 -23.731975 48.847262 7.674250 -6.055790 -19.079980 -0.569702 -8.326642 4.878118 -34.261435 0.410878 -12.219166 53.248379 -40.243906 -18.121997 -2.923041 3.007799 0.569530 -0.560090 0.726340 -0.097090 -4.231901 6.467863 10.141652 75.741037 10.634001 -13.883776 15.582240 48.175877 -0.012462 2.631812 -1.517565 0.254560 -0.112170 -0.411240 -0.079730 
